<?xml version="1.0" standalone="no"?>
<!DOCTYPE svg PUBLIC "-//W3C//DTD SVG 20010904//EN"
 "http://www.w3.org/TR/2001/REC-SVG-20010904/DTD/svg10.dtd">
<svg version="1.0" xmlns="http://www.w3.org/2000/svg"
 width="260.000000pt" height="260.000000pt" viewBox="0 0 260.000000 260.000000"
 preserveAspectRatio="xMidYMid meet">
<metadata>
Created by potrace 1.11, written by Peter Selinger 2001-2013
</metadata>
<g transform="translate(0.000000,260.000000) scale(0.100000,-0.100000)"
fill="#000000" stroke="none">
<path d="M1000 1498 c0 -282 -4 -538 -9 -570 -11 -62 -47 -129 -86 -154 -60
-39 -158 -30 -215 22 -47 42 -65 90 -56 152 8 62 39 107 90 131 50 25 93 27
143 6 19 -8 37 -15 39 -15 2 0 4 113 4 251 l0 252 -122 -6 c-192 -8 -297 -55
-445 -197 -137 -132 -189 -265 -180 -465 5 -131 29 -214 85 -301 61 -95 189
-203 293 -249 24 -11 46 -22 49 -26 10 -14 88 -30 175 -35 88 -6 250 14 264
33 3 5 42 26 86 47 113 56 211 154 265 267 68 142 70 167 70 805 l0 564 -225
0 -225 0 0 -512z"/>
<path d="M2105 1558 c-134 -25 -270 -129 -333 -254 -63 -125 -65 -140 -69
-586 l-5 -408 231 0 231 0 0 328 c0 192 4 342 10 364 6 20 25 49 43 64 29 25
36 26 99 21 l68 -6 0 238 0 239 -22 6 c-34 9 -196 5 -253 -6z"/>
</g>
</svg>
